<svg width="200" height="40" viewBox="0 0 200 40" fill="none" xmlns="http://www.w3.org/2000/svg">
  <!-- Logo Icon -->
  <circle cx="20" cy="20" r="18" fill="#5469d4" />
  <path d="M30 20C30 25.5228 25.5228 30 20 30C14.4772 30 10 25.5228 10 20C10 14.4772 14.4772 10 20 10" stroke="white" stroke-width="3" stroke-linecap="round"/>
  <path d="M20 10V20L27 27" stroke="white" stroke-width="3" stroke-linecap="round" stroke-linejoin="round"/>
  
  <!-- WealthWise Text -->
  <path d="M45.2 32L38 8H43.12L48 26.4H48.16L53.52 8H58.16L63.52 26.4H63.68L68.56 8H73.68L66.48 32H61.52L56 13.44H55.68L50.16 32H45.2Z" fill="#1A202C"/>
  <path d="M80.45 32.32C78.77 32.32 77.29 31.96 76.01 31.24C74.75 30.5 73.77 29.46 73.09 28.12C72.41 26.76 72.07 25.16 72.07 23.32C72.07 21.48 72.41 19.88 73.09 18.52C73.77 17.16 74.75 16.12 76.01 15.4C77.29 14.66 78.77 14.29 80.45 14.29C82.13 14.29 83.61 14.66 84.89 15.4C86.17 16.12 87.15 17.16 87.83 18.52C88.51 19.88 88.85 21.48 88.85 23.32C88.85 25.16 88.51 26.76 87.83 28.12C87.15 29.46 86.17 30.5 84.89 31.24C83.61 31.96 82.13 32.32 80.45 32.32ZM80.45 28.44C81.47 28.44 82.29 28.02 82.93 27.18C83.59 26.34 83.92 25.07 83.92 23.38C83.92 21.68 83.59 20.41 82.93 19.58C82.29 18.73 81.47 18.3 80.45 18.3C79.45 18.3 78.63 18.73 77.97 19.58C77.33 20.41 77.01 21.68 77.01 23.38C77.01 25.07 77.33 26.34 77.97 27.18C78.63 28.02 79.45 28.44 80.45 28.44Z" fill="#1A202C"/>
  <path d="M96.62 32.32C94.94 32.32 93.46 31.96 92.18 31.24C90.92 30.5 89.94 29.46 89.26 28.12C88.58 26.76 88.24 25.16 88.24 23.32C88.24 21.48 88.58 19.88 89.26 18.52C89.94 17.16 90.92 16.12 92.18 15.4C93.46 14.66 94.94 14.29 96.62 14.29C98.3 14.29 99.78 14.66 101.06 15.4C102.34 16.12 103.32 17.16 104 18.52C104.68 19.88 105.02 21.48 105.02 23.32C105.02 25.16 104.68 26.76 104 28.12C103.32 29.46 102.34 30.5 101.06 31.24C99.78 31.96 98.3 32.32 96.62 32.32ZM96.62 28.44C97.64 28.44 98.46 28.02 99.1 27.18C99.76 26.34 100.09 25.07 100.09 23.38C100.09 21.68 99.76 20.41 99.1 19.58C98.46 18.73 97.64 18.3 96.62 18.3C95.62 18.3 94.8 18.73 94.14 19.58C93.5 20.41 93.18 21.68 93.18 23.38C93.18 25.07 93.5 26.34 94.14 27.18C94.8 28.02 95.62 28.44 96.62 28.44Z" fill="#5469d4"/>
  <path d="M118.44 14.64V18.84H112.84V32H107.9V18.84H102.3V14.64H118.44Z" fill="#1A202C"/>
  <path d="M120.47 32V14.64H125.41V28.16H132.71V32H120.47Z" fill="#1A202C"/>
  <path d="M135.14 32V14.64H143.08C144.68 14.64 146.04 14.95 147.16 15.57C148.28 16.19 149.12 17.05 149.68 18.16C150.24 19.27 150.52 20.55 150.52 22.01C150.52 23.47 150.24 24.75 149.68 25.85C149.12 26.95 148.28 27.8 147.16 28.4C146.04 29.01 144.68 29.31 143.08 29.31H137.87L140.08 27.01V32H135.14ZM145.58 22.01C145.58 20.82 145.26 19.92 144.62 19.29C143.98 18.67 143.04 18.36 141.8 18.36H140.08V25.63H141.8C143.04 25.63 143.98 25.32 144.62 24.7C145.26 24.08 145.58 23.18 145.58 22.01Z" fill="#1A202C"/>
  <path d="M152.55 32V14.64H157.49V20.8L157.13 22.4L157.49 23.99V32H152.55ZM159.2 32V14.64H164.14V20.8L163.77 22.4L164.14 23.99V32H159.2Z" fill="#5469d4"/>
  <path d="M166.96 32V14.64H171.9V20.17H176.58V14.64H181.52V32H176.58V24.49H171.9V32H166.96Z" fill="#1A202C"/>
  <path d="M184.4 32V14.64H195.56V18.48H189.34V21.2H194.9V25.04H189.34V28.16H195.56V32H184.4Z" fill="#1A202C"/>
</svg>