<svg width="150" height="40" viewBox="0 0 150 40" fill="none" xmlns="http://www.w3.org/2000/svg">
  <path d="M15.2 32L8 8H13.12L18 26.4H18.16L23.52 8H28.16L33.52 26.4H33.68L38.56 8H43.68L36.48 32H31.52L26 13.44H25.68L20.16 32H15.2Z" fill="#1A202C"/>
  <path d="M50.45 32.32C48.77 32.32 47.29 31.96 46.01 31.24C44.75 30.5 43.77 29.46 43.09 28.12C42.41 26.76 42.07 25.16 42.07 23.32C42.07 21.48 42.41 19.88 43.09 18.52C43.77 17.16 44.75 16.12 46.01 15.4C47.29 14.66 48.77 14.29 50.45 14.29C52.13 14.29 53.61 14.66 54.89 15.4C56.17 16.12 57.15 17.16 57.83 18.52C58.51 19.88 58.85 21.48 58.85 23.32C58.85 25.16 58.51 26.76 57.83 28.12C57.15 29.46 56.17 30.5 54.89 31.24C53.61 31.96 52.13 32.32 50.45 32.32ZM50.45 28.44C51.47 28.44 52.29 28.02 52.93 27.18C53.59 26.34 53.92 25.07 53.92 23.38C53.92 21.68 53.59 20.41 52.93 19.58C52.29 18.73 51.47 18.3 50.45 18.3C49.45 18.3 48.63 18.73 47.97 19.58C47.33 20.41 47.01 21.68 47.01 23.38C47.01 25.07 47.33 26.34 47.97 27.18C48.63 28.02 49.45 28.44 50.45 28.44Z" fill="#1A202C"/>
  <path d="M66.62 32.32C64.94 32.32 63.46 31.96 62.18 31.24C60.92 30.5 59.94 29.46 59.26 28.12C58.58 26.76 58.24 25.16 58.24 23.32C58.24 21.48 58.58 19.88 59.26 18.52C59.94 17.16 60.92 16.12 62.18 15.4C63.46 14.66 64.94 14.29 66.62 14.29C68.3 14.29 69.78 14.66 71.06 15.4C72.34 16.12 73.32 17.16 74 18.52C74.68 19.88 75.02 21.48 75.02 23.32C75.02 25.16 74.68 26.76 74 28.12C73.32 29.46 72.34 30.5 71.06 31.24C69.78 31.96 68.3 32.32 66.62 32.32ZM66.62 28.44C67.64 28.44 68.46 28.02 69.1 27.18C69.76 26.34 70.09 25.07 70.09 23.38C70.09 21.68 69.76 20.41 69.1 19.58C68.46 18.73 67.64 18.3 66.62 18.3C65.62 18.3 64.8 18.73 64.14 19.58C63.5 20.41 63.18 21.68 63.18 23.38C63.18 25.07 63.5 26.34 64.14 27.18C64.8 28.02 65.62 28.44 66.62 28.44Z" fill="#5469d4"/>
  <path d="M88.44 14.64V18.84H82.84V32H77.9V18.84H72.3V14.64H88.44Z" fill="#1A202C"/>
  <path d="M90.47 32V14.64H95.41V28.16H102.71V32H90.47Z" fill="#1A202C"/>
  <path d="M105.14 32V14.64H113.08C114.68 14.64 116.04 14.95 117.16 15.57C118.28 16.19 119.12 17.05 119.68 18.16C120.24 19.27 120.52 20.55 120.52 22.01C120.52 23.47 120.24 24.75 119.68 25.85C119.12 26.95 118.28 27.8 117.16 28.4C116.04 29.01 114.68 29.31 113.08 29.31H107.87L110.08 27.01V32H105.14ZM115.58 22.01C115.58 20.82 115.26 19.92 114.62 19.29C113.98 18.67 113.04 18.36 111.8 18.36H110.08V25.63H111.8C113.04 25.63 113.98 25.32 114.62 24.7C115.26 24.08 115.58 23.18 115.58 22.01Z" fill="#1A202C"/>
  <path d="M122.55 32V14.64H127.49V20.8L127.13 22.4L127.49 23.99V32H122.55ZM129.2 32V14.64H134.14V20.8L133.77 22.4L134.14 23.99V32H129.2Z" fill="#5469d4"/>
  <path d="M136.96 32V14.64H141.9V20.17H146.58V14.64H151.52V32H146.58V24.49H141.9V32H136.96Z" fill="#1A202C"/>
</svg>